<svg width="78" height="78" viewBox="0 0 78 78" fill="none" xmlns="http://www.w3.org/2000/svg">
<path d="M37.623 14.8996C37.1197 14.5837 36.3754 14.3856 35.5936 14.3856C34.8279 14.3856 33.9712 14.5195 33.093 14.8782C30.6031 15.8956 29.1306 17.3092 28.7505 17.6841C28.3756 18.0588 27.8509 18.6478 27.5243 19.1084C27.1976 19.5741 27.626 20.2328 27.1976 20.6612C26.7693 21.0896 25.875 20.6612 25.875 20.6612C25.8001 20.6612 25.7198 20.6879 25.6662 20.7468L23.8403 22.5621C23.7225 22.6745 23.7225 22.8672 23.8403 22.9797L27.2404 26.3584C27.2993 26.4173 27.3744 26.4441 27.4493 26.4441C27.5243 26.4441 27.6046 26.4173 27.6581 26.3584L29.4359 24.4951C29.5537 24.3825 29.5537 24.1898 29.4359 24.0774C29.4359 24.0774 29.152 23.7989 28.788 23.4348C28.4238 23.0707 28.8308 22.4013 29.0717 22.1818C29.3127 21.9623 29.6929 21.8178 30.2016 21.8178C30.4318 21.8178 30.5978 21.8553 30.812 21.9141C31.4653 22.0962 32.1935 22.7655 33.5375 24.0988L33.3286 24.4468C33.2055 24.6503 33.2804 24.8913 33.3982 25.0037C33.3982 25.0037 33.1305 24.7413 34.0996 25.7051L36.7769 23.1778C35.7543 22.1658 36.0005 22.4228 36.0005 22.4228C35.9256 22.3478 35.7971 22.2996 35.6632 22.2996C35.5883 22.2996 35.5079 22.3157 35.4383 22.3532L35.1385 22.5139C33.6392 21.0252 33.2483 20.3613 33.3018 19.2101C33.3607 18.0106 33.9604 17.2235 34.935 16.3882C36.2576 15.2584 38.1798 15.5743 38.1798 15.5743C38.6082 15.5689 37.955 15.1138 37.623 14.8996ZM47.6574 33.2283C47.6574 33.2283 43.9682 30.1655 40.6858 27.0331L38.1316 29.7425C41.2641 32.9874 44.284 36.5749 44.284 36.5749C44.3429 36.6338 44.418 36.6606 44.4929 36.6606C44.5679 36.6606 44.6482 36.6338 44.7017 36.5749L47.6521 33.646C47.7699 33.5336 47.7699 33.3407 47.6574 33.2283Z" fill="#DB0C26"/>
<path d="M48.5513 18.5246L45.7456 21.3411L43.0094 20.8431L42.5168 18.1069L45.3226 15.2904C44.7282 14.6961 43.8876 14.4016 43.2343 14.4016C43.1968 14.4016 43.1594 14.4016 43.1272 14.407C42.4579 14.4391 41.0282 14.8192 39.9198 15.9972C38.8489 17.1271 37.7191 19.2421 38.7204 21.582C38.8382 21.8658 38.972 22.2353 38.5758 22.6369C38.4955 22.7119 38.0457 23.1402 37.371 23.7774C37.1783 23.9595 36.9748 24.1523 36.7499 24.3664C36.3216 24.7734 35.8343 25.2338 35.3149 25.7158C35.1114 25.9085 34.9026 26.1013 34.6937 26.3048C31.6417 29.1855 27.8988 32.7035 27.8988 32.7035C26.935 33.5335 27.0046 35.0649 27.8934 35.9591C28.3486 36.4089 28.9644 36.6444 29.5695 36.6444C30.1585 36.6444 30.7421 36.4196 31.149 35.943C31.149 35.943 34.6563 32.2055 37.537 29.148C37.7352 28.9339 37.9333 28.7304 38.126 28.5216C38.624 27.9914 39.0899 27.4989 39.5075 27.0598C39.7164 26.8349 39.9145 26.626 40.0965 26.4386C40.7123 25.7854 41.13 25.3464 41.221 25.2606C41.4352 25.0518 41.6332 24.9875 41.8154 24.9875C41.992 24.9875 42.1473 25.0518 42.2758 25.116C42.8059 25.3892 43.4003 25.507 44.0107 25.507C45.4404 25.507 46.9557 24.843 47.8713 23.9273C49.1778 22.6209 49.4135 21.3625 49.4563 20.7146C49.4884 20.0828 49.2636 19.2368 48.5513 18.5246ZM30.2495 34.6311C29.9549 34.9203 29.4785 34.9203 29.1893 34.6311C28.9001 34.3367 28.9001 33.8601 29.1893 33.571C29.4838 33.2818 29.9603 33.2818 30.2495 33.571C30.5386 33.8654 30.5386 34.342 30.2495 34.6311Z" fill="#DB0C26"/>
<path d="M63.3753 39C65.4086 39.0121 67.3724 38.2614 68.8792 36.8961C70.3859 35.5308 71.326 33.6501 71.5137 31.6255C71.7015 29.6009 71.1234 27.5795 69.8934 25.9603C68.6635 24.3412 66.8711 23.2421 64.8703 22.8801C64.6696 21.8087 64.2553 20.7887 63.6523 19.8807C63.0491 18.9728 62.2696 18.1955 61.3598 17.595C60.4501 16.9946 59.4289 16.5834 58.3569 16.3859C57.2851 16.1882 56.1843 16.2084 55.1203 16.445C54.8599 14.9782 54.2012 13.6112 53.2162 12.4934C52.2313 11.3757 50.958 10.5503 49.5356 10.1075C48.1131 9.66466 46.5963 9.62136 45.1509 9.98256C43.7056 10.3437 42.3873 11.0952 41.3403 12.155C40.5174 10.3725 39.1754 8.87995 37.4902 7.87271C35.805 6.86547 33.8549 6.39047 31.8952 6.50988C29.9355 6.62928 28.0575 7.33753 26.507 8.54194C24.9565 9.74635 23.8057 11.3908 23.2053 13.26C21.857 12.9031 20.4396 12.8993 19.0894 13.249C17.7392 13.5985 16.5018 14.2898 15.4962 15.2563C14.4906 16.2227 13.7506 17.4317 13.3477 18.7669C12.9447 20.1022 12.8923 21.5186 13.1953 22.8801C11.3367 23.2175 9.65374 24.1919 8.43582 25.6357C7.21791 27.0796 6.54113 28.9028 6.52191 30.7917C6.50267 32.6806 7.14217 34.5171 8.33044 35.9855C9.51869 37.4539 11.1814 38.4623 13.0328 38.8376L13.0003 39H63.3753Z" stroke="#DB0C26" stroke-width="4.7775" stroke-linecap="round" stroke-linejoin="round"/>
<path d="M52 52H61.75C65.325 52 68.25 54.925 68.25 58.5" stroke="#DB0C26" stroke-width="4.7775" stroke-linecap="round" stroke-linejoin="round"/>
<path d="M35.75 39V52" stroke="#DB0C26" stroke-width="4.7775" stroke-linecap="round" stroke-linejoin="round"/>
<path d="M19.5 39V58.5C19.5 60.2239 18.8152 61.8772 17.5962 63.0962C16.3772 64.3152 14.7239 65 13 65H9.75" stroke="#DB0C26" stroke-width="4.7775" stroke-linecap="round" stroke-linejoin="round"/>
<path d="M52 39V65" stroke="#DB0C26" stroke-width="4.7775" stroke-linecap="round" stroke-linejoin="round"/>
<path d="M52 66.6251C51.569 66.6251 51.1557 66.4538 50.8509 66.1491C50.5462 65.8443 50.375 65.4311 50.375 65.0001C50.375 64.5691 50.5462 64.1557 50.8509 63.851C51.1557 63.5462 51.569 63.375 52 63.375C52.431 63.375 52.8443 63.5462 53.149 63.851C53.4538 64.1557 53.6251 64.5691 53.6251 65.0001C53.6251 65.4311 53.4538 65.8443 53.149 66.1491C52.8443 66.4538 52.431 66.6251 52 66.6251Z" stroke="#DB0C26" stroke-width="4.7775" stroke-linecap="round" stroke-linejoin="round"/>
<path d="M35.7501 53.6251C35.3191 53.6251 34.9057 53.4538 34.601 53.1491C34.2962 52.8443 34.125 52.4311 34.125 52.0001C34.125 51.5691 34.2962 51.1557 34.601 50.851C34.9057 50.5462 35.3191 50.375 35.7501 50.375C36.1811 50.375 36.5943 50.5462 36.8991 50.851C37.2038 51.1557 37.3751 51.5691 37.3751 52.0001C37.3751 52.4311 37.2038 52.8443 36.8991 53.1491C36.5943 53.4538 36.1811 53.6251 35.7501 53.6251Z" stroke="#DB0C26" stroke-width="4.7775" stroke-linecap="round" stroke-linejoin="round"/>
<path d="M9.74998 66.6251C9.319 66.6251 8.90569 66.4538 8.60095 66.1491C8.2962 65.8443 8.125 65.4311 8.125 65.0001C8.125 64.5691 8.2962 64.1557 8.60095 63.851C8.90569 63.5462 9.319 63.375 9.74998 63.375C10.181 63.375 10.5943 63.5462 10.899 63.851C11.2038 64.1557 11.375 64.5691 11.375 65.0001C11.375 65.4311 11.2038 65.8443 10.899 66.1491C10.5943 66.4538 10.181 66.6251 9.74998 66.6251Z" stroke="#DB0C26" stroke-width="4.7775" stroke-linecap="round" stroke-linejoin="round"/>
<path d="M68.25 60.125C67.819 60.125 67.4056 59.9537 67.1009 59.649C66.7962 59.3442 66.625 58.931 66.625 58.5C66.625 58.069 66.7962 57.6556 67.1009 57.3509C67.4056 57.0461 67.819 56.875 68.25 56.875C68.681 56.875 69.0943 57.0461 69.399 57.3509C69.7037 57.6556 69.875 58.069 69.875 58.5C69.875 58.931 69.7037 59.3442 69.399 59.649C69.0943 59.9537 68.681 60.125 68.25 60.125Z" stroke="#DB0C26" stroke-width="4.7775" stroke-linecap="round" stroke-linejoin="round"/>
</svg>
